<?xml version="1.0" encoding="UTF-8" ?>
<svg version="1.1" width="400" height="400" xmlns="http://www.w3.org/2000/svg" shape-rendering="crispEdges">
<rect x="150" y="50" width="10" height="10" fill="#63482E" />
<rect x="160" y="50" width="10" height="10" fill="#000000" />
<rect x="170" y="50" width="10" height="10" fill="#63482E" />
<rect x="140" y="60" width="10" height="10" fill="#63482E" />
<rect x="150" y="60" width="10" height="10" fill="#342517" />
<rect x="160" y="60" width="10" height="10" fill="#3F2E1D" />
<rect x="170" y="60" width="10" height="10" fill="#63482E" />
<rect x="180" y="60" width="10" height="10" fill="#3F2E1D" />
<rect x="190" y="60" width="10" height="10" fill="#63482E" />
<rect x="130" y="70" width="10" height="10" fill="#000000" />
<rect x="140" y="70" width="10" height="10" fill="#3F2E1D" />
<rect x="150" y="70" width="10" height="10" fill="#3F2E1D" />
<rect x="160" y="70" width="10" height="10" fill="#63482E" />
<rect x="170" y="70" width="10" height="10" fill="#3F2E1D" />
<rect x="180" y="70" width="10" height="10" fill="#342517" />
<rect x="190" y="70" width="10" height="10" fill="#3F2E1D" />
<rect x="200" y="70" width="10" height="10" fill="#63482E" />
<rect x="100" y="80" width="10" height="10" fill="#000000" />
<rect x="110" y="80" width="10" height="10" fill="#342517" />
<rect x="120" y="80" width="10" height="10" fill="#342517" />
<rect x="130" y="80" width="10" height="10" fill="#3F2E1D" />
<rect x="140" y="80" width="10" height="10" fill="#63482E" />
<rect x="150" y="80" width="10" height="10" fill="#342517" />
<rect x="160" y="80" width="10" height="10" fill="#3F2E1D" />
<rect x="170" y="80" width="10" height="10" fill="#63482E" />
<rect x="180" y="80" width="10" height="10" fill="#342517" />
<rect x="190" y="80" width="10" height="10" fill="#342517" />
<rect x="200" y="80" width="10" height="10" fill="#342517" />
<rect x="80" y="90" width="10" height="10" fill="#000000" />
<rect x="90" y="90" width="10" height="10" fill="#342517" />
<rect x="100" y="90" width="10" height="10" fill="#342517" />
<rect x="110" y="90" width="10" height="10" fill="#342517" />
<rect x="120" y="90" width="10" height="10" fill="#3F2E1D" />
<rect x="130" y="90" width="10" height="10" fill="#342517" />
<rect x="140" y="90" width="10" height="10" fill="#342517" />
<rect x="150" y="90" width="10" height="10" fill="#3F2E1D" />
<rect x="160" y="90" width="10" height="10" fill="#342517" />
<rect x="170" y="90" width="10" height="10" fill="#3F2E1D" />
<rect x="180" y="90" width="10" height="10" fill="#342517" />
<rect x="190" y="90" width="10" height="10" fill="#63482E" />
<rect x="200" y="90" width="10" height="10" fill="#342517" />
<rect x="210" y="90" width="10" height="10" fill="#000000" />
<rect x="80" y="100" width="10" height="10" fill="#342517" />
<rect x="90" y="100" width="10" height="10" fill="#342517" />
<rect x="100" y="100" width="10" height="10" fill="#342517" />
<rect x="110" y="100" width="10" height="10" fill="#342517" />
<rect x="120" y="100" width="10" height="10" fill="#342517" />
<rect x="130" y="100" width="10" height="10" fill="#342517" />
<rect x="140" y="100" width="10" height="10" fill="#342517" />
<rect x="150" y="100" width="10" height="10" fill="#342517" />
<rect x="160" y="100" width="10" height="10" fill="#342517" />
<rect x="170" y="100" width="10" height="10" fill="#342517" />
<rect x="180" y="100" width="10" height="10" fill="#342517" />
<rect x="190" y="100" width="10" height="10" fill="#342517" />
<rect x="200" y="100" width="10" height="10" fill="#3F2E1D" />
<rect x="210" y="100" width="10" height="10" fill="#000000" />
<rect x="70" y="110" width="10" height="10" fill="#000000" />
<rect x="80" y="110" width="10" height="10" fill="#342517" />
<rect x="90" y="110" width="10" height="10" fill="#342517" />
<rect x="100" y="110" width="10" height="10" fill="#342517" />
<rect x="110" y="110" width="10" height="10" fill="#342517" />
<rect x="120" y="110" width="10" height="10" fill="#342517" />
<rect x="130" y="110" width="10" height="10" fill="#342517" />
<rect x="140" y="110" width="10" height="10" fill="#342517" />
<rect x="150" y="110" width="10" height="10" fill="#342517" />
<rect x="160" y="110" width="10" height="10" fill="#342517" />
<rect x="170" y="110" width="10" height="10" fill="#342517" />
<rect x="180" y="110" width="10" height="10" fill="#342517" />
<rect x="190" y="110" width="10" height="10" fill="#342517" />
<rect x="200" y="110" width="10" height="10" fill="#63482E" />
<rect x="210" y="110" width="10" height="10" fill="#000000" />
<rect x="70" y="120" width="10" height="10" fill="#000000" />
<rect x="80" y="120" width="10" height="10" fill="#342517" />
<rect x="90" y="120" width="10" height="10" fill="#342517" />
<rect x="100" y="120" width="10" height="10" fill="#342517" />
<rect x="110" y="120" width="10" height="10" fill="#342517" />
<rect x="120" y="120" width="10" height="10" fill="#3F2E1D" />
<rect x="130" y="120" width="10" height="10" fill="#F5BB94" />
<rect x="140" y="120" width="10" height="10" fill="#FCD7B1" />
<rect x="150" y="120" width="10" height="10" fill="#FCD7B1" />
<rect x="160" y="120" width="10" height="10" fill="#FCD7B1" />
<rect x="170" y="120" width="10" height="10" fill="#FCD7B1" />
<rect x="180" y="120" width="10" height="10" fill="#F5BB94" />
<rect x="190" y="120" width="10" height="10" fill="#3F2E1D" />
<rect x="200" y="120" width="10" height="10" fill="#342517" />
<rect x="210" y="120" width="10" height="10" fill="#000000" />
<rect x="70" y="130" width="10" height="10" fill="#000000" />
<rect x="80" y="130" width="10" height="10" fill="#342517" />
<rect x="90" y="130" width="10" height="10" fill="#342517" />
<rect x="100" y="130" width="10" height="10" fill="#342517" />
<rect x="110" y="130" width="10" height="10" fill="#342517" />
<rect x="120" y="130" width="10" height="10" fill="#F5BB94" />
<rect x="130" y="130" width="10" height="10" fill="#FCD7B1" />
<rect x="140" y="130" width="10" height="10" fill="#FCD7B1" />
<rect x="150" y="130" width="10" height="10" fill="#FCD7B1" />
<rect x="160" y="130" width="10" height="10" fill="#FCD7B1" />
<rect x="170" y="130" width="10" height="10" fill="#FCD7B1" />
<rect x="180" y="130" width="10" height="10" fill="#FCD7B1" />
<rect x="190" y="130" width="10" height="10" fill="#F5BB94" />
<rect x="200" y="130" width="10" height="10" fill="#3F2E1D" />
<rect x="210" y="130" width="10" height="10" fill="#000000" />
<rect x="70" y="140" width="10" height="10" fill="#000000" />
<rect x="80" y="140" width="10" height="10" fill="#342517" />
<rect x="90" y="140" width="10" height="10" fill="#342517" />
<rect x="100" y="140" width="10" height="10" fill="#342517" />
<rect x="110" y="140" width="10" height="10" fill="#342517" />
<rect x="120" y="140" width="10" height="10" fill="#F5BB94" />
<rect x="130" y="140" width="10" height="10" fill="#FCD7B1" />
<rect x="140" y="140" width="10" height="10" fill="#FCD7B1" />
<rect x="150" y="140" width="10" height="10" fill="#FCD7B1" />
<rect x="160" y="140" width="10" height="10" fill="#FCD7B1" />
<rect x="170" y="140" width="10" height="10" fill="#FCD7B1" />
<rect x="180" y="140" width="10" height="10" fill="#FCD7B1" />
<rect x="190" y="140" width="10" height="10" fill="#F5BB94" />
<rect x="200" y="140" width="10" height="10" fill="#3F2E1D" />
<rect x="210" y="140" width="10" height="10" fill="#000000" />
<rect x="70" y="150" width="10" height="10" fill="#000000" />
<rect x="80" y="150" width="10" height="10" fill="#342517" />
<rect x="90" y="150" width="10" height="10" fill="#342517" />
<rect x="100" y="150" width="10" height="10" fill="#342517" />
<rect x="110" y="150" width="10" height="10" fill="#3F2E1D" />
<rect x="120" y="150" width="10" height="10" fill="#F5BB94" />
<rect x="130" y="150" width="10" height="10" fill="#FCD7B1" />
<rect x="140" y="150" width="10" height="10" fill="#FCD7B1" />
<rect x="150" y="150" width="10" height="10" fill="#FCD7B1" />
<rect x="160" y="150" width="10" height="10" fill="#FCD7B1" />
<rect x="170" y="150" width="10" height="10" fill="#FCD7B1" />
<rect x="180" y="150" width="10" height="10" fill="#FCD7B1" />
<rect x="190" y="150" width="10" height="10" fill="#FCD7B1" />
<rect x="200" y="150" width="10" height="10" fill="#F5BB94" />
<rect x="210" y="150" width="10" height="10" fill="#000000" />
<rect x="70" y="160" width="10" height="10" fill="#000000" />
<rect x="80" y="160" width="10" height="10" fill="#342517" />
<rect x="90" y="160" width="10" height="10" fill="#CF8554" />
<rect x="100" y="160" width="10" height="10" fill="#F29F68" />
<rect x="110" y="160" width="10" height="10" fill="#3F2E1D" />
<rect x="120" y="160" width="10" height="10" fill="#F5BB94" />
<rect x="130" y="160" width="10" height="10" fill="#000000" />
<rect x="140" y="160" width="10" height="10" fill="#000000" />
<rect x="150" y="160" width="10" height="10" fill="#FCD7B1" />
<rect x="160" y="160" width="10" height="10" fill="#FCD7B1" />
<rect x="170" y="160" width="10" height="10" fill="#FCD7B1" />
<rect x="180" y="160" width="10" height="10" fill="#FCD7B1" />
<rect x="190" y="160" width="10" height="10" fill="#000000" />
<rect x="200" y="160" width="10" height="10" fill="#000000" />
<rect x="210" y="160" width="10" height="10" fill="#000000" />
<rect x="70" y="170" width="10" height="10" fill="#000000" />
<rect x="80" y="170" width="10" height="10" fill="#342517" />
<rect x="90" y="170" width="10" height="10" fill="#F29F68" />
<rect x="100" y="170" width="10" height="10" fill="#FCD7B1" />
<rect x="110" y="170" width="10" height="10" fill="#F29F68" />
<rect x="120" y="170" width="10" height="10" fill="#FCD7B1" />
<rect x="130" y="170" width="10" height="10" fill="#3F3F74" />
<rect x="140" y="170" width="10" height="10" fill="#FCD7B1" />
<rect x="150" y="170" width="10" height="10" fill="#FCD7B1" />
<rect x="160" y="170" width="10" height="10" fill="#FCD7B1" />
<rect x="170" y="170" width="10" height="10" fill="#FCD7B1" />
<rect x="180" y="170" width="10" height="10" fill="#FCD7B1" />
<rect x="190" y="170" width="10" height="10" fill="#3F3F74" />
<rect x="200" y="170" width="10" height="10" fill="#F29F68" />
<rect x="210" y="170" width="10" height="10" fill="#000000" />
<rect x="70" y="180" width="10" height="10" fill="#000000" />
<rect x="80" y="180" width="10" height="10" fill="#342517" />
<rect x="90" y="180" width="10" height="10" fill="#F29F68" />
<rect x="100" y="180" width="10" height="10" fill="#FCD7B1" />
<rect x="110" y="180" width="10" height="10" fill="#FCD7B1" />
<rect x="120" y="180" width="10" height="10" fill="#FCD7B1" />
<rect x="130" y="180" width="10" height="10" fill="#FCD7B1" />
<rect x="140" y="180" width="10" height="10" fill="#FCD7B1" />
<rect x="150" y="180" width="10" height="10" fill="#000000" />
<rect x="160" y="180" width="10" height="10" fill="#000000" />
<rect x="170" y="180" width="10" height="10" fill="#000000" />
<rect x="180" y="180" width="10" height="10" fill="#FCD7B1" />
<rect x="190" y="180" width="10" height="10" fill="#FCD7B1" />
<rect x="200" y="180" width="10" height="10" fill="#F29F68" />
<rect x="210" y="180" width="10" height="10" fill="#000000" />
<rect x="80" y="190" width="10" height="10" fill="#000000" />
<rect x="90" y="190" width="10" height="10" fill="#CF8554" />
<rect x="100" y="190" width="10" height="10" fill="#FCD7B1" />
<rect x="110" y="190" width="10" height="10" fill="#FCD7B1" />
<rect x="120" y="190" width="10" height="10" fill="#FCD7B1" />
<rect x="130" y="190" width="10" height="10" fill="#FCD7B1" />
<rect x="140" y="190" width="10" height="10" fill="#FCD7B1" />
<rect x="150" y="190" width="10" height="10" fill="#FCD7B1" />
<rect x="160" y="190" width="10" height="10" fill="#FCD7B1" />
<rect x="170" y="190" width="10" height="10" fill="#FCD7B1" />
<rect x="180" y="190" width="10" height="10" fill="#FCD7B1" />
<rect x="190" y="190" width="10" height="10" fill="#FCD7B1" />
<rect x="200" y="190" width="10" height="10" fill="#CF8554" />
<rect x="210" y="190" width="10" height="10" fill="#000000" />
<rect x="90" y="200" width="10" height="10" fill="#000000" />
<rect x="100" y="200" width="10" height="10" fill="#CF8554" />
<rect x="110" y="200" width="10" height="10" fill="#F29F68" />
<rect x="120" y="200" width="10" height="10" fill="#F29F68" />
<rect x="130" y="200" width="10" height="10" fill="#F29F68" />
<rect x="140" y="200" width="10" height="10" fill="#F29F68" />
<rect x="150" y="200" width="10" height="10" fill="#F29F68" />
<rect x="160" y="200" width="10" height="10" fill="#F29F68" />
<rect x="170" y="200" width="10" height="10" fill="#F29F68" />
<rect x="180" y="200" width="10" height="10" fill="#F29F68" />
<rect x="190" y="200" width="10" height="10" fill="#CF8554" />
<rect x="200" y="200" width="10" height="10" fill="#000000" />
<rect x="90" y="210" width="10" height="10" fill="#000000" />
<rect x="100" y="210" width="10" height="10" fill="#F5BB94" />
<rect x="110" y="210" width="10" height="10" fill="#F5BB94" />
<rect x="120" y="210" width="10" height="10" fill="#F5BB94" />
<rect x="130" y="210" width="10" height="10" fill="#000000" />
<rect x="140" y="210" width="10" height="10" fill="#000000" />
<rect x="150" y="210" width="10" height="10" fill="#FFFFFF" />
<rect x="160" y="210" width="10" height="10" fill="#000000" />
<rect x="170" y="210" width="10" height="10" fill="#000000" />
<rect x="180" y="210" width="10" height="10" fill="#F5BB94" />
<rect x="190" y="210" width="10" height="10" fill="#000000" />
<rect x="80" y="220" width="10" height="10" fill="#000000" />
<rect x="90" y="220" width="10" height="10" fill="#000000" />
<rect x="100" y="220" width="10" height="10" fill="#000000" />
<rect x="110" y="220" width="10" height="10" fill="#F5BB94" />
<rect x="120" y="220" width="10" height="10" fill="#F5BB94" />
<rect x="130" y="220" width="10" height="10" fill="#F5BB94" />
<rect x="140" y="220" width="10" height="10" fill="#000000" />
<rect x="150" y="220" width="10" height="10" fill="#F5BB94" />
<rect x="160" y="220" width="10" height="10" fill="#000000" />
<rect x="170" y="220" width="10" height="10" fill="#F5BB94" />
<rect x="180" y="220" width="10" height="10" fill="#F5BB94" />
<rect x="190" y="220" width="10" height="10" fill="#F5BB94" />
<rect x="200" y="220" width="10" height="10" fill="#000000" />
<rect x="70" y="230" width="10" height="10" fill="#000000" />
<rect x="80" y="230" width="10" height="10" fill="#F29F68" />
<rect x="90" y="230" width="10" height="10" fill="#F29F68" />
<rect x="100" y="230" width="10" height="10" fill="#F29F68" />
<rect x="110" y="230" width="10" height="10" fill="#000000" />
<rect x="120" y="230" width="10" height="10" fill="#F5BB94" />
<rect x="130" y="230" width="10" height="10" fill="#F29F68" />
<rect x="140" y="230" width="10" height="10" fill="#F29F68" />
<rect x="150" y="230" width="10" height="10" fill="#F29F68" />
<rect x="160" y="230" width="10" height="10" fill="#F29F68" />
<rect x="170" y="230" width="10" height="10" fill="#F29F68" />
<rect x="180" y="230" width="10" height="10" fill="#F5BB94" />
<rect x="190" y="230" width="10" height="10" fill="#000000" />
<rect x="70" y="240" width="10" height="10" fill="#000000" />
<rect x="80" y="240" width="10" height="10" fill="#F29F68" />
<rect x="90" y="240" width="10" height="10" fill="#F29F68" />
<rect x="100" y="240" width="10" height="10" fill="#F29F68" />
<rect x="110" y="240" width="10" height="10" fill="#000000" />
<rect x="120" y="240" width="10" height="10" fill="#F5BB94" />
<rect x="130" y="240" width="10" height="10" fill="#F5BB94" />
<rect x="140" y="240" width="10" height="10" fill="#F5BB94" />
<rect x="150" y="240" width="10" height="10" fill="#F29F68" />
<rect x="160" y="240" width="10" height="10" fill="#F5BB94" />
<rect x="170" y="240" width="10" height="10" fill="#F5BB94" />
<rect x="180" y="240" width="10" height="10" fill="#000000" />
<rect x="190" y="240" width="10" height="10" fill="#F29F68" />
<rect x="200" y="240" width="10" height="10" fill="#000000" />
<rect x="80" y="250" width="10" height="10" fill="#000000" />
<rect x="90" y="250" width="10" height="10" fill="#000000" />
<rect x="100" y="250" width="10" height="10" fill="#000000" />
<rect x="110" y="250" width="10" height="10" fill="#000000" />
<rect x="120" y="250" width="10" height="10" fill="#F5BB94" />
<rect x="130" y="250" width="10" height="10" fill="#F5BB94" />
<rect x="140" y="250" width="10" height="10" fill="#F29F68" />
<rect x="150" y="250" width="10" height="10" fill="#F29F68" />
<rect x="160" y="250" width="10" height="10" fill="#F29F68" />
<rect x="170" y="250" width="10" height="10" fill="#F5BB94" />
<rect x="180" y="250" width="10" height="10" fill="#000000" />
<rect x="190" y="250" width="10" height="10" fill="#F29F68" />
<rect x="200" y="250" width="10" height="10" fill="#000000" />
<rect x="100" y="260" width="10" height="10" fill="#000000" />
<rect x="110" y="260" width="10" height="10" fill="#F29F68" />
<rect x="120" y="260" width="10" height="10" fill="#F5BB94" />
<rect x="130" y="260" width="10" height="10" fill="#F5BB94" />
<rect x="140" y="260" width="10" height="10" fill="#F5BB94" />
<rect x="150" y="260" width="10" height="10" fill="#F5BB94" />
<rect x="160" y="260" width="10" height="10" fill="#F5BB94" />
<rect x="170" y="260" width="10" height="10" fill="#F5BB94" />
<rect x="180" y="260" width="10" height="10" fill="#000000" />
<rect x="190" y="260" width="10" height="10" fill="#000000" />
<rect x="100" y="270" width="10" height="10" fill="#000000" />
<rect x="110" y="270" width="10" height="10" fill="#000000" />
<rect x="120" y="270" width="10" height="10" fill="#259C05" />
<rect x="130" y="270" width="10" height="10" fill="#259C05" />
<rect x="140" y="270" width="10" height="10" fill="#259C05" />
<rect x="150" y="270" width="10" height="10" fill="#259C05" />
<rect x="160" y="270" width="10" height="10" fill="#259C05" />
<rect x="170" y="270" width="10" height="10" fill="#259C05" />
<rect x="180" y="270" width="10" height="10" fill="#000000" />
<rect x="100" y="280" width="10" height="10" fill="#000000" />
<rect x="110" y="280" width="10" height="10" fill="#259C05" />
<rect x="120" y="280" width="10" height="10" fill="#259C05" />
<rect x="130" y="280" width="10" height="10" fill="#259C05" />
<rect x="140" y="280" width="10" height="10" fill="#000000" />
<rect x="150" y="280" width="10" height="10" fill="#000000" />
<rect x="160" y="280" width="10" height="10" fill="#259C05" />
<rect x="170" y="280" width="10" height="10" fill="#259C05" />
<rect x="180" y="280" width="10" height="10" fill="#000000" />
<rect x="100" y="290" width="10" height="10" fill="#000000" />
<rect x="110" y="290" width="10" height="10" fill="#259C05" />
<rect x="120" y="290" width="10" height="10" fill="#000000" />
<rect x="130" y="290" width="10" height="10" fill="#000000" />
<rect x="160" y="290" width="10" height="10" fill="#000000" />
<rect x="170" y="290" width="10" height="10" fill="#259C05" />
<rect x="180" y="290" width="10" height="10" fill="#000000" />
<rect x="110" y="300" width="10" height="10" fill="#000000" />
<rect x="160" y="300" width="10" height="10" fill="#000000" />
<rect x="170" y="300" width="10" height="10" fill="#259C05" />
<rect x="180" y="300" width="10" height="10" fill="#000000" />
<rect x="170" y="310" width="10" height="10" fill="#000000" />
</svg>